#!OML:ASF H:\Terrain\Patient Classification 1\Walking\liu\liu.ASF
:FULLY-SPECIFIED
:DEGREES
243
root 10.116535 17.848160 -2.771527 11.198219 -5.069636 -4.152852
lowerback -8.183802 2.251755 0.969595
upperback -2.768491 2.875026 2.416997
thorax 1.654939 1.440274 2.191673
lowerneck -20.061802 -6.577054 -15.469851
upperneck 17.941881 -8.397686 17.059570
head 10.254541 -3.215135 7.389767
rclavicle 0.000000 -0.000000
rhumerus -49.733089 8.414516 -95.660400
rradius 47.262268
rwrist -24.238390
rhand -31.855782 -25.463131
rfingers 7.837522
rthumb -2.544135 -58.427052
lclavicle 0.000000 -0.000000
lhumerus -51.764240 -5.186027 97.122520
lradius 21.530630
lwrist -6.765616
lhand -7.513880 -26.956490
lfingers 7.837522
lthumb 20.936852 5.041036
rfemur 18.491440 4.196731 26.219160
rtibia 17.544889
rfoot 5.917648 4.870734
rtoes -17.292110
lfemur -51.569649 10.075571 -23.349482
ltibia 46.973629
lfoot -6.177226 5.656365
ltoes -0.046094
244
root 10.162218 17.887869 -2.594746 11.144320 -5.463777 -3.676288
lowerback -8.163033 2.395987 0.766810
upperback -2.781108 3.087502 2.151149
thorax 1.628462 1.546072 2.047815
lowerneck -20.281910 -6.696250 -15.210580
upperneck 18.186081 -8.555624 16.683920
head 10.375443 -3.297877 7.187312
rclavicle 0.000000 -0.000000
rhumerus -50.070679 8.327121 -95.710342
rradius 46.792351
rwrist -24.580160
rhand -32.180939 -25.705570
rfingers 7.837522
rthumb -2.858218 -58.665859
lclavicle 0.000000 -0.000000
lhumerus -51.113041 -5.474645 97.026047
lradius 21.364531
lwrist -6.481013
lhand -6.653845 -24.826010
lfingers 7.837522
lthumb 21.763828 7.088334
rfemur 16.361509 3.408823 25.078571
rtibia 22.068859
rfoot 6.958864 5.151707
rtoes -15.720650
lfemur -50.625740 10.095843 -23.943480
ltibia 46.870560
lfoot -6.976695 5.665341
ltoes 0.971256
245
root 10.200586 17.928900 -2.428349 11.043560 -5.727337 -2.975181
lowerback -7.772292 2.335014 0.074156
upperback -2.997280 3.067196 2.033394
thorax 1.162722 1.541320 2.289210
lowerneck -20.442511 -6.652800 -15.235661
upperneck 18.575481 -8.449991 16.415081
head 10.508663 -3.268320 7.120410
rclavicle -0.000000 0.000000
rhumerus -50.986870 9.045487 -96.032310
rradius 46.832943
rwrist -25.685770
rhand -33.462551 -26.852652
rfingers 7.837522
rthumb -4.095850 -59.794571
lclavicle -0.000000 0.000000
lhumerus -50.790192 -5.349784 96.998993
lradius 21.164440
lwrist -6.745816
lhand -6.734651 -23.992319
lfingers 7.837522
lthumb 21.686171 7.930010
rfemur 14.469400 2.534048 23.803009
rtibia 26.197380
rfoot 7.729887 5.539336
rtoes -17.131180
lfemur -49.737267 10.060908 -24.861540
ltibia 46.754620
lfoot -7.487887 5.688463
ltoes 0.008635
246
root 10.242331 17.963661 -2.262590 10.932383 -6.052651 -2.340569
lowerback -7.431501 2.259213 -0.497934
upperback -3.198228 3.010612 1.937023
thorax 0.746682 1.520266 2.486088
lowerneck -20.522041 -6.552931 -15.256451
upperneck 18.998320 -8.280788 16.157570
head 10.629433 -3.211934 7.068655
rclavicle 0.000000 0.000000
rhumerus -51.349430 9.447085 -96.189064
rradius 45.940731
rwrist -26.168449
rhand -33.994179 -25.836031
rfingers 7.837522
rthumb -4.609319 -58.768379
lclavicle 0.000000 0.000000
lhumerus -50.551052 -5.038528 96.787682
lradius 21.226149
lwrist -7.475666
lhand -7.776681 -25.349279
lfingers 7.837522
lthumb 20.684181 6.673018
rfemur 12.772650 2.044471 22.664841
rtibia 30.120529
rfoot 8.742690 5.563437
rtoes -17.663689
lfemur -48.819321 10.198892 -25.740440
ltibia 46.553650
lfoot -8.044509 5.730197
ltoes -1.552419
247
root 10.291161 17.994461 -2.090396 10.738618 -6.439873 -1.979912
lowerback -7.023819 2.259158 -0.743597
upperback -3.376637 3.029301 1.921612
thorax 0.325234 1.536414 2.587013
lowerneck -20.321070 -6.436771 -15.348300
upperneck 19.224699 -8.114799 16.043831
head 10.641312 -3.159772 7.076762
rclavicle -0.000000 -0.000000
rhumerus -51.489681 9.067818 -95.480003
rradius 44.617210
rwrist -24.122671
rhand -32.066978 -24.778709
rfingers 7.837522
rthumb -2.748163 -57.740318
lclavicle -0.000000 -0.000000
lhumerus -50.333801 -5.239344 97.049591
lradius 21.952261
lwrist -8.032277
lhand -8.097903 -24.826780
lfingers 7.837522
lthumb 20.375189 7.225097
rfemur 11.224071 1.507275 21.729511
rtibia 33.873840
rfoot 10.518343 5.371289
rtoes -16.912611
lfemur -47.711399 10.510863 -26.306391
ltibia 46.309120
lfoot -8.889738 5.846038
ltoes -0.733042
248
root 10.335171 18.034939 -1.929939 10.581429 -6.710121 -1.373064
lowerback -6.037350 2.110383 -1.442089
upperback -3.993759 2.872166 1.956933
thorax -0.885025 1.484890 2.951223
lowerneck -20.178511 -6.200249 -15.265249
upperneck 19.938379 -7.805941 15.642220
head 10.790131 -3.055536 6.985979
rclavicle 0.000000 -0.000000
rhumerus -53.176201 10.540926 -96.341629
rradius 45.155441
rwrist -26.574572
rhand -33.089539 -26.939770
rfingers 7.837522
rthumb -3.735633 -59.887741
lclavicle 0.000000 -0.000000
lhumerus -50.876648 -6.039286 98.192924
lradius 21.861731
lwrist -4.501552
lhand -9.952975 -26.118290
lfingers 7.837522
lthumb 18.590111 6.094836
rfemur 9.428430 0.587515 20.579241
rtibia 37.452026
rfoot 11.698280 5.347903
rtoes -17.477680
lfemur -46.614590 10.479689 -27.016111
ltibia 45.909267
lfoot -9.708424 5.974364
ltoes 2.852344
249
root 10.373363 18.068050 -1.784035 10.422501 -7.049878 -1.453188
lowerback -6.421206 2.209768 -1.039510
upperback -3.290111 2.980395 1.830521
thorax 0.072898 1.515943 2.632861
lowerneck -21.245180 -6.314341 -14.917980
upperneck 19.850050 -7.887627 15.498230
head 10.951512 -3.043744 6.852065
rclavicle 0.000000 0.000000
rhumerus -52.247803 10.692859 -96.693962
rradius 44.810699
rwrist -27.959360
rhand -32.915188 -29.676350
rfingers 7.837522
rthumb -3.567278 -62.626961
lclavicle 0.000000 0.000000
lhumerus -48.872890 -6.103526 97.638092
lradius 21.783190
lwrist -5.634717
lhand -10.173647 -26.229170
lfingers 7.837522
lthumb 18.377701 6.001985
rfemur 7.573973 0.305288 20.514120
rtibia 40.917137
rfoot 12.358171 4.380046
rtoes -17.546429
lfemur -45.522072 10.252144 -26.741989
ltibia 45.397881
lfoot -10.193370 6.257900
ltoes 5.379209
